#!OML:ASF H:\Dans Jumps\Project 1\Capture day 1\Session 1\subject.ASF
:FULLY-SPECIFIED
:DEGREES
235
root 0.302628 17.4963 3.26728 7.03588 -1.95784 -1.0858
lowerback -5.47265 -0.965239 -1.3978
upperback 2.18598 -1.22144 0.762739
thorax 5.3863 -0.666763 1.45345
lowerneck 0.440874 -2.97015 -5.57994
upperneck -36.3512 -2.10432 9.70812
head -11.7106 -1.37108 4.92162
rclavicle -7.14382e-015 -2.48481e-016
rhumerus -18.1036 -48.487 -5.74608
rradius 27.4827
rwrist 39.598
rhand -5.96331 -22.9695
rfingers 7.12502
rthumb 19.8676 -51.974
lclavicle -7.14382e-015 -2.48481e-016
lhumerus -10.0955 33.4859 16.4138
lradius 26.7289
lwrist -2.62354
lhand -20.3923 -5.72511
lfingers 7.12502
lthumb 5.96112 24.171
rfemur -17.1362 -4.85058 17.3904
rtibia 31.2237
rfoot -18.3933 -6.45566
rtoes 11.5174
lfemur -14.7278 6.99741 -16.9211
ltibia 27.8458
lfoot -15.166 13.4408
ltoes 6.78351
236
root 0.301922 17.4964 3.26836 7.0314 -1.95508 -1.12732
lowerback -5.4836 -0.97212 -1.4081
upperback 2.19122 -1.23037 0.775451
thorax 5.39892 -0.671905 1.47133
lowerneck 0.677825 -3.21427 -5.77556
upperneck -36.6838 -2.22275 10.5566
head -11.8557 -1.49888 5.3277
rclavicle 1.72818e-014 3.37934e-015
rhumerus -18.0669 -48.1093 -5.84243
rradius 27.5687
rwrist 39.2706
rhand -5.90455 -22.6939
rfingers 7.12502
rthumb 19.9241 -51.6926
lclavicle 1.72818e-014 3.37934e-015
lhumerus -10.1528 33.1433 16.3735
lradius 26.8057
lwrist -2.315
lhand -20.5865 -5.69079
lfingers 7.12502
lthumb 5.77363 24.2105
rfemur -17.1236 -4.81983 17.4398
rtibia 31.2144
rfoot -18.3916 -6.48072
rtoes 11.5849
lfemur -14.726 7.00225 -16.8714
ltibia 27.8598
lfoot -15.1752 13.4376
ltoes 6.81658
237
root 0.301878 17.4954 3.26991 7.01182 -1.92701 -1.16231
lowerback -5.48748 -0.989977 -1.41424
upperback 2.20962 -1.25417 0.784176
thorax 5.42169 -0.684351 1.48121
lowerneck 0.831332 -3.37303 -5.97139
upperneck -36.9842 -2.21241 11.3941
head -11.9846 -1.5656 5.72061
rclavicle -1.36167e-014 3.97569e-015
rhumerus -17.9904 -47.9157 -5.9551
rradius 27.61
rwrist 39.1204
rhand -5.81076 -23.0366
rfingers 7.12502
rthumb 20.0143 -52.0259
lclavicle -1.36167e-014 3.97569e-015
lhumerus -10.1885 33.1579 16.3462
lradius 26.8749
lwrist -2.37622
lhand -20.593 -5.65953
lfingers 7.12502
lthumb 5.76727 24.242
rfemur -17.0866 -4.83011 17.4779
rtibia 31.2134
rfoot -18.4035 -6.48991
rtoes 11.6704
lfemur -14.7036 6.99647 -16.8273
ltibia 27.8682
lfoot -15.1875 13.4261
ltoes 6.82817
238
root 0.301312 17.495 3.27062 7.00764 -1.90286 -1.14636
lowerback -5.48319 -1.01176 -1.48896
upperback 2.20209 -1.27792 0.790336
thorax 5.41423 -0.698715 1.52727
lowerneck 0.98635 -3.50338 -6.1629
upperneck -37.1307 -2.18079 12.1808
head -12.0525 -1.61864 6.0835
rclavicle -2.06239e-015 -3.27995e-015
rhumerus -17.8977 -47.548 -6.08023
rradius 27.6671
rwrist 38.8304
rhand -5.76561 -23.3665
rfingers 7.12502
rthumb 20.0577 -52.3512
lclavicle -2.06239e-015 -3.27995e-015
lhumerus -10.2357 33.058 16.2991
lradius 26.8822
lwrist -2.39343
lhand -20.4557 -5.88199
lfingers 7.12502
lthumb 5.89991 24.0159
rfemur -17.0735 -4.83935 17.4633
rtibia 31.2122
rfoot -18.426 -6.49885
rtoes 11.6141
lfemur -14.7056 6.97197 -16.8393
ltibia 27.8792
lfoot -15.1934 13.4266
ltoes 6.80728
239
root 0.300441 17.4945 3.27079 6.99556 -1.87578 -1.13888
lowerback -5.47595 -1.03435 -1.541
upperback 2.20855 -1.30374 0.781424
thorax 5.41896 -0.713219 1.54466
lowerneck 0.490173 -3.83149 -5.72002
upperneck -36.6884 -2.56992 12.3187
head -11.7209 -1.86824 6.02701
rclavicle 1.35298e-014 -8.94531e-015
rhumerus -17.7867 -48.0849 -6.1389
rradius 27.5193
rwrist 39.4322
rhand -5.79074 -23.1574
rfingers 7.12502
rthumb 20.0335 -52.1446
lclavicle 1.35298e-014 -8.94531e-015
lhumerus -10.3116 32.8093 16.2277
lradius 26.963
lwrist -2.23979
lhand -20.3587 -5.94051
lfingers 7.12502
lthumb 5.9935 23.9547
rfemur -17.0568 -4.829 17.4583
rtibia 31.2141
rfoot -18.4268 -6.5373
rtoes 11.5511
lfemur -14.7026 6.96532 -16.8397
ltibia 27.8922
lfoot -15.2086 13.4026
ltoes 6.90618
